<svg width="396" height="151" viewBox="0 0 396 151" fill="none" xmlns="http://www.w3.org/2000/svg">
<g filter="url(#filter0_d_2619_67)">
<path d="M0 0H380V95C380 117.091 362.091 135 340 135H0V0Z" fill="#FEF08A"/>
<path d="M378 2V95C378 115.987 360.987 133 340 133H2V2H378Z" stroke="black" stroke-width="4"/>
</g>
<path fill-rule="evenodd" clip-rule="evenodd" d="M38 27C38 32.5228 33.5228 37 28 37H18.9937C18.1102 37 17.6677 35.9229 18.2925 35.2929L20.2495 33.3195C18.8433 31.597 18 29.397 18 27C18 21.4772 22.4772 17 28 17C33.5228 17 38 21.4772 38 27ZM28.99 23C28.99 22.4477 28.5446 22 27.995 22C27.4455 22 27 22.4477 27 23V27C27 27.5523 27.4455 28 27.995 28C28.5446 28 28.99 27.5523 28.99 27V23ZM27.995 30C27.4455 30 27 30.4477 27 31C27 31.5523 27.4455 32 27.995 32H28.005C28.5545 32 29 31.5523 29 31C29 30.4477 28.5545 30 28.005 30H27.995Z" fill="black"/>
<path d="M354.295 23.115C354.684 22.7256 354.684 22.0944 354.295 21.705V21.705C353.906 21.3156 353.274 21.3156 352.885 21.705L348 26.59L343.115 21.705C342.726 21.3156 342.094 21.3156 341.705 21.705V21.705C341.316 22.0944 341.316 22.7256 341.705 23.115L346.59 28L341.705 32.885C341.316 33.2744 341.316 33.9056 341.705 34.295V34.295C342.094 34.6844 342.726 34.6844 343.115 34.295L348 29.41L352.885 34.295C353.274 34.6844 353.906 34.6844 354.295 34.295V34.295C354.684 33.9056 354.684 33.2744 354.295 32.885L349.41 28L354.295 23.115Z" fill="#090909"/>
<path d="M58.6183 23.4635V35H56.7594L51.3235 27.1419H51.2278V35H49.1379V23.4635H51.0081L56.4383 31.3272H56.5397V23.4635H58.6183ZM64.6359 35.169C63.7684 35.169 63.0192 34.9887 62.3883 34.6282C61.7611 34.2639 61.2786 33.7495 60.9406 33.0848C60.6026 32.4163 60.4336 31.6295 60.4336 30.7245C60.4336 29.8345 60.6026 29.0534 60.9406 28.3811C61.2823 27.7052 61.7593 27.1794 62.3714 26.8039C62.9835 26.4246 63.7027 26.2349 64.5288 26.2349C65.0621 26.2349 65.5653 26.3213 66.0385 26.4941C66.5154 26.6631 66.936 26.9259 67.3003 27.2827C67.6683 27.6395 67.9575 28.0939 68.1678 28.6459C68.3781 29.1942 68.4833 29.8476 68.4833 30.6062V31.2315H61.3912V29.857H66.5286C66.5248 29.4664 66.4403 29.1191 66.2751 28.8149C66.1099 28.5069 65.8789 28.2647 65.5822 28.0882C65.2893 27.9117 64.9476 27.8235 64.557 27.8235C64.1402 27.8235 63.774 27.9249 63.4586 28.1276C63.1431 28.3267 62.8971 28.5896 62.7206 28.9163C62.5479 29.2392 62.4596 29.5941 62.4559 29.9809V31.1808C62.4559 31.684 62.5479 32.1159 62.7319 32.4764C62.9159 32.8331 63.1732 33.1073 63.5036 33.2988C63.8341 33.4866 64.2209 33.5805 64.664 33.5805C64.9607 33.5805 65.2292 33.5392 65.4696 33.4565C65.7099 33.3702 65.9183 33.2444 66.0948 33.0791C66.2713 32.9139 66.4047 32.7092 66.4948 32.4651L68.3988 32.6792C68.2786 33.1824 68.0495 33.6218 67.7115 33.9973C67.3773 34.3691 66.9492 34.6583 66.4272 34.8648C65.9052 35.0676 65.3081 35.169 64.6359 35.169ZM71.9476 35L69.5029 26.3476H71.5815L73.1024 32.4313H73.1812L74.736 26.3476H76.792L78.3468 32.3975H78.4313L79.9297 26.3476H82.0139L79.5635 35H77.4399L75.8175 29.1529H75.6992L74.0769 35H71.9476ZM94.7348 23.4635H96.8247V31.0005C96.8247 31.8267 96.6294 32.5534 96.2388 33.1805C95.852 33.8077 95.3075 34.2977 94.6052 34.6507C93.903 35 93.0824 35.1746 92.1436 35.1746C91.201 35.1746 90.3786 35 89.6763 34.6507C88.974 34.2977 88.4295 33.8077 88.0427 33.1805C87.6559 32.5534 87.4625 31.8267 87.4625 31.0005V23.4635H89.5524V30.8259C89.5524 31.3066 89.6575 31.7347 89.8678 32.1102C90.0819 32.4858 90.3823 32.7806 90.7691 32.9946C91.1559 33.2049 91.6141 33.3101 92.1436 33.3101C92.6731 33.3101 93.1312 33.2049 93.5181 32.9946C93.9086 32.7806 94.209 32.4858 94.4193 32.1102C94.6296 31.7347 94.7348 31.3066 94.7348 30.8259V23.4635ZM99.0061 38.2447V26.3476H101.011V27.7784H101.13C101.235 27.5681 101.383 27.3447 101.575 27.1081C101.766 26.8677 102.025 26.6631 102.352 26.4941C102.679 26.3213 103.096 26.2349 103.603 26.2349C104.271 26.2349 104.874 26.4058 105.411 26.7475C105.952 27.0855 106.38 27.5869 106.695 28.2516C107.014 28.9125 107.174 29.7237 107.174 30.6851C107.174 31.6352 107.018 32.4426 106.706 33.1073C106.395 33.772 105.97 34.279 105.433 34.6282C104.896 34.9775 104.288 35.1521 103.608 35.1521C103.113 35.1521 102.701 35.0695 102.375 34.9042C102.048 34.739 101.785 34.54 101.586 34.3071C101.391 34.0705 101.239 33.8471 101.13 33.6368H101.045V38.2447H99.0061ZM101.006 30.6738C101.006 31.2334 101.085 31.7234 101.242 32.144C101.404 32.5646 101.635 32.8932 101.935 33.1298C102.239 33.3627 102.607 33.4791 103.039 33.4791C103.49 33.4791 103.867 33.3589 104.172 33.1186C104.476 32.8745 104.705 32.5421 104.859 32.1215C105.017 31.6971 105.095 31.2146 105.095 30.6738C105.095 30.1368 105.018 29.6598 104.864 29.243C104.71 28.8262 104.481 28.4994 104.177 28.2628C103.873 28.0263 103.494 27.908 103.039 27.908C102.604 27.908 102.234 28.0225 101.93 28.2516C101.625 28.4807 101.394 28.8017 101.237 29.2148C101.083 29.6279 101.006 30.1142 101.006 30.6738ZM112.131 35.1521C111.451 35.1521 110.843 34.9775 110.306 34.6282C109.769 34.279 109.345 33.772 109.033 33.1073C108.721 32.4426 108.565 31.6352 108.565 30.6851C108.565 29.7237 108.723 28.9125 109.039 28.2516C109.358 27.5869 109.788 27.0855 110.329 26.7475C110.869 26.4058 111.472 26.2349 112.137 26.2349C112.644 26.2349 113.061 26.3213 113.387 26.4941C113.714 26.6631 113.973 26.8677 114.165 27.1081C114.356 27.3447 114.505 27.5681 114.61 27.7784H114.694V23.4635H116.739V35H114.734V33.6368H114.61C114.505 33.8471 114.352 34.0705 114.153 34.3071C113.954 34.54 113.691 34.739 113.365 34.9042C113.038 35.0695 112.627 35.1521 112.131 35.1521ZM112.7 33.4791C113.132 33.4791 113.5 33.3627 113.804 33.1298C114.108 32.8932 114.339 32.5646 114.497 32.144C114.655 31.7234 114.734 31.2334 114.734 30.6738C114.734 30.1142 114.655 29.6279 114.497 29.2148C114.343 28.8017 114.114 28.4807 113.81 28.2516C113.509 28.0225 113.139 27.908 112.7 27.908C112.246 27.908 111.866 28.0263 111.562 28.2628C111.258 28.4994 111.029 28.8262 110.875 29.243C110.721 29.6598 110.644 30.1368 110.644 30.6738C110.644 31.2146 110.721 31.6971 110.875 32.1215C111.033 32.5421 111.264 32.8745 111.568 33.1186C111.876 33.3589 112.253 33.4791 112.7 33.4791ZM121.402 35.1746C120.853 35.1746 120.36 35.077 119.92 34.8817C119.485 34.6827 119.139 34.3898 118.884 34.0029C118.632 33.6161 118.506 33.1392 118.506 32.5721C118.506 32.0839 118.596 31.6802 118.777 31.361C118.957 31.0418 119.203 30.7865 119.515 30.5949C119.826 30.4034 120.178 30.2588 120.568 30.1612C120.962 30.0598 121.37 29.9866 121.79 29.9415C122.297 29.8889 122.709 29.842 123.024 29.8007C123.34 29.7556 123.569 29.688 123.711 29.5979C123.858 29.504 123.931 29.3594 123.931 29.1641V29.1303C123.931 28.706 123.805 28.3774 123.554 28.1445C123.302 27.9117 122.94 27.7953 122.466 27.7953C121.967 27.7953 121.571 27.9042 121.278 28.122C120.989 28.3398 120.793 28.5971 120.692 28.8937L118.788 28.6234C118.938 28.0976 119.186 27.6582 119.532 27.3052C119.877 26.9485 120.3 26.6818 120.799 26.5053C121.298 26.3251 121.851 26.2349 122.455 26.2349C122.872 26.2349 123.287 26.2838 123.7 26.3814C124.113 26.479 124.491 26.6405 124.832 26.8658C125.174 27.0874 125.448 27.3897 125.655 27.7728C125.865 28.1558 125.97 28.6346 125.97 29.2092V35H124.01V33.8114H123.942C123.818 34.0518 123.644 34.2771 123.418 34.4874C123.197 34.6939 122.917 34.8611 122.579 34.9887C122.245 35.1127 121.852 35.1746 121.402 35.1746ZM121.931 33.6762C122.341 33.6762 122.695 33.5955 122.996 33.434C123.296 33.2688 123.527 33.051 123.689 32.7806C123.854 32.5102 123.937 32.2154 123.937 31.8962V30.8766C123.873 30.9292 123.764 30.978 123.61 31.023C123.46 31.0681 123.291 31.1075 123.103 31.1413C122.915 31.1751 122.729 31.2052 122.545 31.2315C122.361 31.2578 122.202 31.2803 122.066 31.2991C121.762 31.3404 121.49 31.408 121.25 31.5019C121.009 31.5957 120.82 31.7272 120.681 31.8962C120.542 32.0614 120.472 32.2755 120.472 32.5383C120.472 32.9139 120.609 33.1974 120.884 33.3889C121.158 33.5805 121.507 33.6762 121.931 33.6762ZM132.341 26.3476V27.9249H127.367V26.3476H132.341ZM128.595 24.2746H130.634V32.3975C130.634 32.6717 130.676 32.882 130.758 33.0284C130.845 33.1711 130.957 33.2688 131.096 33.3213C131.235 33.3739 131.389 33.4002 131.558 33.4002C131.686 33.4002 131.802 33.3908 131.907 33.372C132.016 33.3533 132.099 33.3364 132.155 33.3213L132.499 34.9155C132.39 34.9531 132.234 34.9944 132.031 35.0394C131.832 35.0845 131.588 35.1108 131.299 35.1183C130.788 35.1333 130.328 35.0563 129.919 34.8873C129.51 34.7146 129.185 34.448 128.944 34.0874C128.708 33.7269 128.591 33.2763 128.595 32.7355V24.2746ZM137.784 35.169C136.917 35.169 136.167 34.9887 135.537 34.6282C134.909 34.2639 134.427 33.7495 134.089 33.0848C133.751 32.4163 133.582 31.6295 133.582 30.7245C133.582 29.8345 133.751 29.0534 134.089 28.3811C134.431 27.7052 134.908 27.1794 135.52 26.8039C136.132 26.4246 136.851 26.2349 137.677 26.2349C138.21 26.2349 138.714 26.3213 139.187 26.4941C139.664 26.6631 140.084 26.9259 140.449 27.2827C140.817 27.6395 141.106 28.0939 141.316 28.6459C141.526 29.1942 141.632 29.8476 141.632 30.6062V31.2315H134.54V29.857H139.677C139.673 29.4664 139.589 29.1191 139.423 28.8149C139.258 28.5069 139.027 28.2647 138.731 28.0882C138.438 27.9117 138.096 27.8235 137.705 27.8235C137.288 27.8235 136.922 27.9249 136.607 28.1276C136.291 28.3267 136.045 28.5896 135.869 28.9163C135.696 29.2392 135.608 29.5941 135.604 29.9809V31.1808C135.604 31.684 135.696 32.1159 135.88 32.4764C136.064 32.8331 136.321 33.1073 136.652 33.2988C136.982 33.4866 137.369 33.5805 137.812 33.5805C138.109 33.5805 138.378 33.5392 138.618 33.4565C138.858 33.3702 139.067 33.2444 139.243 33.0791C139.42 32.9139 139.553 32.7092 139.643 32.4651L141.547 32.6792C141.427 33.1824 141.198 33.6218 140.86 33.9973C140.526 34.3691 140.097 34.6583 139.575 34.8648C139.053 35.0676 138.456 35.169 137.784 35.169ZM148.863 35H146.632L150.694 23.4635H153.274L157.341 35H155.11L152.029 25.8294H151.939L148.863 35ZM148.936 30.4766H155.02V32.1553H148.936V30.4766ZM165.414 26.3476L162.333 35H160.08L156.999 26.3476H159.173L161.161 32.7749H161.252L163.246 26.3476H165.414ZM169.067 35.1746C168.519 35.1746 168.025 35.077 167.586 34.8817C167.15 34.6827 166.805 34.3898 166.549 34.0029C166.298 33.6161 166.172 33.1392 166.172 32.5721C166.172 32.0839 166.262 31.6802 166.442 31.361C166.623 31.0418 166.869 30.7865 167.18 30.5949C167.492 30.4034 167.843 30.2588 168.234 30.1612C168.628 30.0598 169.036 29.9866 169.456 29.9415C169.963 29.8889 170.374 29.842 170.69 29.8007C171.005 29.7556 171.234 29.688 171.377 29.5979C171.523 29.504 171.597 29.3594 171.597 29.1641V29.1303C171.597 28.706 171.471 28.3774 171.219 28.1445C170.968 27.9117 170.605 27.7953 170.132 27.7953C169.633 27.7953 169.236 27.9042 168.944 28.122C168.654 28.3398 168.459 28.5971 168.358 28.8937L166.454 28.6234C166.604 28.0976 166.852 27.6582 167.197 27.3052C167.543 26.9485 167.965 26.6818 168.465 26.5053C168.964 26.3251 169.516 26.2349 170.121 26.2349C170.538 26.2349 170.953 26.2838 171.366 26.3814C171.779 26.479 172.156 26.6405 172.498 26.8658C172.84 27.0874 173.114 27.3897 173.32 27.7728C173.531 28.1558 173.636 28.6346 173.636 29.2092V35H171.676V33.8114H171.608C171.484 34.0518 171.309 34.2771 171.084 34.4874C170.863 34.6939 170.583 34.8611 170.245 34.9887C169.911 35.1127 169.518 35.1746 169.067 35.1746ZM169.597 33.6762C170.006 33.6762 170.361 33.5955 170.662 33.434C170.962 33.2688 171.193 33.051 171.354 32.7806C171.52 32.5102 171.602 32.2154 171.602 31.8962V30.8766C171.538 30.9292 171.43 30.978 171.276 31.023C171.125 31.0681 170.956 31.1075 170.769 31.1413C170.581 31.1751 170.395 31.2052 170.211 31.2315C170.027 31.2578 169.867 31.2803 169.732 31.2991C169.428 31.3404 169.156 31.408 168.915 31.5019C168.675 31.5957 168.485 31.7272 168.346 31.8962C168.207 32.0614 168.138 32.2755 168.138 32.5383C168.138 32.9139 168.275 33.1974 168.549 33.3889C168.823 33.5805 169.173 33.6762 169.597 33.6762ZM175.686 35V26.3476H177.725V35H175.686ZM176.712 25.1196C176.389 25.1196 176.111 25.0126 175.878 24.7985C175.645 24.5807 175.529 24.3197 175.529 24.0155C175.529 23.7076 175.645 23.4466 175.878 23.2325C176.111 23.0147 176.389 22.9058 176.712 22.9058C177.038 22.9058 177.316 23.0147 177.545 23.2325C177.778 23.4466 177.894 23.7076 177.894 24.0155C177.894 24.3197 177.778 24.5807 177.545 24.7985C177.316 25.0126 177.038 25.1196 176.712 25.1196ZM181.862 23.4635V35H179.822V23.4635H181.862ZM186.448 35.1746C185.9 35.1746 185.406 35.077 184.967 34.8817C184.531 34.6827 184.186 34.3898 183.93 34.0029C183.679 33.6161 183.553 33.1392 183.553 32.5721C183.553 32.0839 183.643 31.6802 183.823 31.361C184.004 31.0418 184.249 30.7865 184.561 30.5949C184.873 30.4034 185.224 30.2588 185.615 30.1612C186.009 30.0598 186.416 29.9866 186.837 29.9415C187.344 29.8889 187.755 29.842 188.071 29.8007C188.386 29.7556 188.615 29.688 188.758 29.5979C188.904 29.504 188.978 29.3594 188.978 29.1641V29.1303C188.978 28.706 188.852 28.3774 188.6 28.1445C188.348 27.9117 187.986 27.7953 187.513 27.7953C187.013 27.7953 186.617 27.9042 186.324 28.122C186.035 28.3398 185.84 28.5971 185.739 28.8937L183.835 28.6234C183.985 28.0976 184.233 27.6582 184.578 27.3052C184.924 26.9485 185.346 26.6818 185.846 26.5053C186.345 26.3251 186.897 26.2349 187.502 26.2349C187.919 26.2349 188.333 26.2838 188.747 26.3814C189.16 26.479 189.537 26.6405 189.879 26.8658C190.221 27.0874 190.495 27.3897 190.701 27.7728C190.912 28.1558 191.017 28.6346 191.017 29.2092V35H189.056V33.8114H188.989C188.865 34.0518 188.69 34.2771 188.465 34.4874C188.243 34.6939 187.964 34.8611 187.626 34.9887C187.291 35.1127 186.899 35.1746 186.448 35.1746ZM186.978 33.6762C187.387 33.6762 187.742 33.5955 188.042 33.434C188.343 33.2688 188.574 33.051 188.735 32.7806C188.901 32.5102 188.983 32.2154 188.983 31.8962V30.8766C188.919 30.9292 188.81 30.978 188.656 31.023C188.506 31.0681 188.337 31.1075 188.149 31.1413C187.962 31.1751 187.776 31.2052 187.592 31.2315C187.408 31.2578 187.248 31.2803 187.113 31.2991C186.809 31.3404 186.537 31.408 186.296 31.5019C186.056 31.5957 185.866 31.7272 185.727 31.8962C185.588 32.0614 185.519 32.2755 185.519 32.5383C185.519 32.9139 185.656 33.1974 185.93 33.3889C186.204 33.5805 186.553 33.6762 186.978 33.6762ZM193.157 35V23.4635H195.196V27.7784H195.281C195.386 27.5681 195.534 27.3447 195.726 27.1081C195.917 26.8677 196.177 26.6631 196.503 26.4941C196.83 26.3213 197.247 26.2349 197.754 26.2349C198.422 26.2349 199.025 26.4058 199.562 26.7475C200.103 27.0855 200.531 27.5869 200.846 28.2516C201.166 28.9125 201.325 29.7237 201.325 30.6851C201.325 31.6352 201.169 32.4426 200.858 33.1073C200.546 33.772 200.122 34.279 199.585 34.6282C199.048 34.9775 198.439 35.1521 197.759 35.1521C197.264 35.1521 196.853 35.0695 196.526 34.9042C196.199 34.739 195.936 34.54 195.737 34.3071C195.542 34.0705 195.39 33.8471 195.281 33.6368H195.163V35H193.157ZM195.157 30.6738C195.157 31.2334 195.236 31.7234 195.394 32.144C195.555 32.5646 195.786 32.8932 196.086 33.1298C196.391 33.3627 196.759 33.4791 197.191 33.4791C197.641 33.4791 198.019 33.3589 198.323 33.1186C198.627 32.8745 198.856 32.5421 199.01 32.1215C199.168 31.6971 199.247 31.2146 199.247 30.6738C199.247 30.1368 199.17 29.6598 199.016 29.243C198.862 28.8262 198.633 28.4994 198.328 28.2628C198.024 28.0263 197.645 27.908 197.191 27.908C196.755 27.908 196.385 28.0225 196.081 28.2516C195.777 28.4807 195.546 28.8017 195.388 29.2148C195.234 29.6279 195.157 30.1142 195.157 30.6738ZM205.098 23.4635V35H203.059V23.4635H205.098ZM211.025 35.169C210.158 35.169 209.409 34.9887 208.778 34.6282C208.151 34.2639 207.668 33.7495 207.33 33.0848C206.992 32.4163 206.823 31.6295 206.823 30.7245C206.823 29.8345 206.992 29.0534 207.33 28.3811C207.672 27.7052 208.149 27.1794 208.761 26.8039C209.373 26.4246 210.092 26.2349 210.918 26.2349C211.452 26.2349 211.955 26.3213 212.428 26.4941C212.905 26.6631 213.326 26.9259 213.69 27.2827C214.058 27.6395 214.347 28.0939 214.557 28.6459C214.768 29.1942 214.873 29.8476 214.873 30.6062V31.2315H207.781V29.857H212.918C212.914 29.4664 212.83 29.1191 212.665 28.8149C212.499 28.5069 212.268 28.2647 211.972 28.0882C211.679 27.9117 211.337 27.8235 210.947 27.8235C210.53 27.8235 210.164 27.9249 209.848 28.1276C209.533 28.3267 209.287 28.5896 209.11 28.9163C208.937 29.2392 208.849 29.5941 208.845 29.9809V31.1808C208.845 31.684 208.937 32.1159 209.121 32.4764C209.305 32.8331 209.563 33.1073 209.893 33.2988C210.224 33.4866 210.61 33.5805 211.054 33.5805C211.35 33.5805 211.619 33.5392 211.859 33.4565C212.099 33.3702 212.308 33.2444 212.484 33.0791C212.661 32.9139 212.794 32.7092 212.884 32.4651L214.788 32.6792C214.668 33.1824 214.439 33.6218 214.101 33.9973C213.767 34.3691 213.339 34.6583 212.817 34.8648C212.295 35.0676 211.698 35.169 211.025 35.169Z" fill="black"/>
<path d="M58.6803 55.0686H57.2833C57.2007 54.6668 57.0561 54.3138 56.8496 54.0096C56.6468 53.7054 56.3989 53.4501 56.106 53.2435C55.8168 53.0332 55.4957 52.8755 55.1427 52.7703C54.7897 52.6652 54.4217 52.6126 54.0387 52.6126C53.3402 52.6126 52.7074 52.7891 52.1403 53.1421C51.577 53.4951 51.1282 54.0152 50.794 54.7025C50.4635 55.3897 50.2983 56.2328 50.2983 57.2317C50.2983 58.2307 50.4635 59.0737 50.794 59.761C51.1282 60.4482 51.577 60.9683 52.1403 61.3213C52.7074 61.6743 53.3402 61.8509 54.0387 61.8509C54.4217 61.8509 54.7897 61.7983 55.1427 61.6931C55.4957 61.588 55.8168 61.4321 56.106 61.2256C56.3989 61.0153 56.6468 60.758 56.8496 60.4539C57.0561 60.1459 57.2007 59.7929 57.2833 59.3948H58.6803C58.5752 59.9844 58.3836 60.5121 58.1057 60.9777C57.8278 61.4434 57.4823 61.8396 57.0692 62.1663C56.6562 62.4893 56.1924 62.7352 55.6779 62.9042C55.1671 63.0732 54.6207 63.1577 54.0387 63.1577C53.0547 63.1577 52.1797 62.9174 51.4136 62.4367C50.6475 61.956 50.0448 61.2725 49.6054 60.3863C49.166 59.5 48.9464 58.4485 48.9464 57.2317C48.9464 56.015 49.166 54.9635 49.6054 54.0772C50.0448 53.1909 50.6475 52.5075 51.4136 52.0268C52.1797 51.5461 53.0547 51.3057 54.0387 51.3057C54.6207 51.3057 55.1671 51.3902 55.6779 51.5592C56.1924 51.7282 56.6562 51.9761 57.0692 52.3028C57.4823 52.6258 57.8278 53.0201 58.1057 53.4857C58.3836 53.9476 58.5752 54.4753 58.6803 55.0686ZM62.0869 57.795V63H60.7575V51.4635H62.0869V55.6995H62.1996C62.4024 55.2526 62.7065 54.8978 63.1121 54.6349C63.5215 54.3683 64.066 54.2349 64.7457 54.2349C65.3353 54.2349 65.8517 54.3532 66.2948 54.5898C66.738 54.8227 67.0816 55.1813 67.3257 55.6657C67.5735 56.1464 67.6975 56.7586 67.6975 57.5021V63H66.368V57.5922C66.368 56.905 66.1897 56.3736 65.8329 55.9981C65.4799 55.6188 64.9898 55.4291 64.3627 55.4291C63.927 55.4291 63.5365 55.5212 63.191 55.7052C62.8493 55.8892 62.5789 56.1577 62.3798 56.5107C62.1845 56.8637 62.0869 57.2918 62.0869 57.795ZM73.7572 63.1803C72.9235 63.1803 72.2044 62.9962 71.5998 62.6282C70.9989 62.2564 70.5351 61.7382 70.2084 61.0735C69.8854 60.405 69.7239 59.6277 69.7239 58.7414C69.7239 57.8551 69.8854 57.074 70.2084 56.398C70.5351 55.7183 70.9895 55.1888 71.5716 54.8095C72.1574 54.4265 72.8409 54.2349 73.622 54.2349C74.0727 54.2349 74.5177 54.31 74.9571 54.4603C75.3965 54.6105 75.7964 54.8546 76.1569 55.1926C76.5174 55.5268 76.8047 55.9699 77.0188 56.522C77.2328 57.074 77.3399 57.7537 77.3399 58.5611V59.1244H70.6703V57.9753H75.9879C75.9879 57.4871 75.8903 57.0515 75.695 56.6684C75.5035 56.2854 75.2293 55.9831 74.8726 55.7615C74.5196 55.5399 74.1027 55.4291 73.622 55.4291C73.0925 55.4291 72.6344 55.5606 72.2476 55.8235C71.8645 56.0826 71.5697 56.4206 71.3632 56.8374C71.1566 57.2543 71.0534 57.7012 71.0534 58.1781V58.9442C71.0534 59.5976 71.166 60.1515 71.3913 60.6059C71.6204 61.0566 71.9377 61.4002 72.3433 61.6368C72.7489 61.8696 73.2202 61.986 73.7572 61.986C74.1065 61.986 74.4219 61.9372 74.7036 61.8396C74.989 61.7382 75.235 61.588 75.4415 61.3889C75.6481 61.1862 75.8077 60.9345 75.9203 60.6341L77.2047 60.9946C77.0695 61.4303 76.8423 61.8133 76.5231 62.1438C76.2039 62.4705 75.8095 62.7259 75.3401 62.9099C74.8707 63.0901 74.3431 63.1803 73.7572 63.1803ZM82.8772 63.1803C82.066 63.1803 81.3675 62.9887 80.7817 62.6057C80.1958 62.2226 79.7452 61.695 79.4297 61.0228C79.1143 60.3506 78.9566 59.5826 78.9566 58.7189C78.9566 57.8401 79.118 57.0646 79.441 56.3924C79.7677 55.7164 80.2221 55.1888 80.8042 54.8095C81.39 54.4265 82.0735 54.2349 82.8546 54.2349C83.463 54.2349 84.0113 54.3476 84.4995 54.5729C84.9877 54.7982 85.3876 55.1137 85.6993 55.5193C86.011 55.9249 86.2044 56.398 86.2796 56.9388H84.9501C84.8488 56.5445 84.6234 56.1952 84.2742 55.8911C83.9287 55.5831 83.463 55.4291 82.8772 55.4291C82.3589 55.4291 81.9045 55.5643 81.514 55.8347C81.1272 56.1014 80.8249 56.4788 80.607 56.967C80.393 57.4514 80.286 58.0204 80.286 58.6738C80.286 59.3423 80.3911 59.9243 80.6014 60.4201C80.8155 60.9158 81.1159 61.3007 81.5027 61.5748C81.8933 61.849 82.3514 61.986 82.8772 61.986C83.2227 61.986 83.5362 61.926 83.8179 61.8058C84.0996 61.6856 84.338 61.5129 84.5333 61.2875C84.7286 61.0622 84.8675 60.7918 84.9501 60.4764H86.2796C86.2044 60.9871 86.0186 61.4471 85.7219 61.8565C85.429 62.2621 85.0403 62.585 84.5558 62.8254C84.0751 63.062 83.5156 63.1803 82.8772 63.1803ZM89.4622 59.8455L89.4397 58.2006H89.7101L93.4955 54.3476H95.1404L91.1071 58.4259H90.9944L89.4622 59.8455ZM88.223 63V51.4635H89.5524V63H88.223ZM93.7208 63L90.341 58.7189L91.2874 57.795L95.4108 63H93.7208ZM100.862 52.7027V51.4635H109.515V52.7027H105.887V63H104.49V52.7027H100.862ZM112.82 57.795V63H111.49V51.4635H112.82V55.6995H112.932C113.135 55.2526 113.439 54.8978 113.845 54.6349C114.254 54.3683 114.799 54.2349 115.479 54.2349C116.068 54.2349 116.585 54.3532 117.028 54.5898C117.471 54.8227 117.814 55.1813 118.059 55.6657C118.306 56.1464 118.43 56.7586 118.43 57.5021V63H117.101V57.5922C117.101 56.905 116.923 56.3736 116.566 55.9981C116.213 55.6188 115.723 55.4291 115.096 55.4291C114.66 55.4291 114.269 55.5212 113.924 55.7052C113.582 55.8892 113.312 56.1577 113.113 56.5107C112.917 56.8637 112.82 57.2918 112.82 57.795ZM124.49 63.1803C123.656 63.1803 122.937 62.9962 122.333 62.6282C121.732 62.2564 121.268 61.7382 120.941 61.0735C120.618 60.405 120.457 59.6277 120.457 58.7414C120.457 57.8551 120.618 57.074 120.941 56.398C121.268 55.7183 121.722 55.1888 122.304 54.8095C122.89 54.4265 123.574 54.2349 124.355 54.2349C124.806 54.2349 125.251 54.31 125.69 54.4603C126.129 54.6105 126.529 54.8546 126.89 55.1926C127.25 55.5268 127.538 55.9699 127.752 56.522C127.966 57.074 128.073 57.7537 128.073 58.5611V59.1244H121.403V57.9753H126.721C126.721 57.4871 126.623 57.0515 126.428 56.6684C126.236 56.2854 125.962 55.9831 125.605 55.7615C125.252 55.5399 124.836 55.4291 124.355 55.4291C123.825 55.4291 123.367 55.5606 122.98 55.8235C122.597 56.0826 122.303 56.4206 122.096 56.8374C121.89 57.2543 121.786 57.7012 121.786 58.1781V58.9442C121.786 59.5976 121.899 60.1515 122.124 60.6059C122.353 61.0566 122.671 61.4002 123.076 61.6368C123.482 61.8696 123.953 61.986 124.49 61.986C124.839 61.986 125.155 61.9372 125.436 61.8396C125.722 61.7382 125.968 61.588 126.174 61.3889C126.381 61.1862 126.541 60.9345 126.653 60.6341L127.938 60.9946C127.802 61.4303 127.575 61.8133 127.256 62.1438C126.937 62.4705 126.542 62.7259 126.073 62.9099C125.604 63.0901 125.076 63.1803 124.49 63.1803ZM143.885 51.4635V63H142.533L136.246 53.942H136.134V63H134.737V51.4635H136.089L142.398 60.544H142.51V51.4635H143.885ZM150.128 63.1803C149.294 63.1803 148.575 62.9962 147.97 62.6282C147.369 62.2564 146.906 61.7382 146.579 61.0735C146.256 60.405 146.094 59.6277 146.094 58.7414C146.094 57.8551 146.256 57.074 146.579 56.398C146.906 55.7183 147.36 55.1888 147.942 54.8095C148.528 54.4265 149.211 54.2349 149.992 54.2349C150.443 54.2349 150.888 54.31 151.327 54.4603C151.767 54.6105 152.167 54.8546 152.527 55.1926C152.888 55.5268 153.175 55.9699 153.389 56.522C153.603 57.074 153.71 57.7537 153.71 58.5611V59.1244H147.041V57.9753H152.358C152.358 57.4871 152.261 57.0515 152.065 56.6684C151.874 56.2854 151.6 55.9831 151.243 55.7615C150.89 55.5399 150.473 55.4291 149.992 55.4291C149.463 55.4291 149.005 55.5606 148.618 55.8235C148.235 56.0826 147.94 56.4206 147.734 56.8374C147.527 57.2543 147.424 57.7012 147.424 58.1781V58.9442C147.424 59.5976 147.536 60.1515 147.762 60.6059C147.991 61.0566 148.308 61.4002 148.714 61.6368C149.119 61.8696 149.591 61.986 150.128 61.986C150.477 61.986 150.792 61.9372 151.074 61.8396C151.359 61.7382 151.605 61.588 151.812 61.3889C152.018 61.1862 152.178 60.9345 152.291 60.6341L153.575 60.9946C153.44 61.4303 153.213 61.8133 152.893 62.1438C152.574 62.4705 152.18 62.7259 151.711 62.9099C151.241 63.0901 150.713 63.1803 150.128 63.1803ZM157.693 63L155.057 54.3476H156.454L158.324 60.9721H158.414L160.262 54.3476H161.681L163.506 60.9496H163.596L165.466 54.3476H166.863L164.227 63H162.92L161.028 56.353H160.892L159 63H157.693ZM173.263 63V51.4635H177.161C178.062 51.4635 178.802 51.6174 179.38 51.9254C179.959 52.2296 180.387 52.6483 180.665 53.1816C180.942 53.7148 181.081 54.3213 181.081 55.001C181.081 55.6808 180.942 56.2835 180.665 56.8093C180.387 57.335 179.96 57.7481 179.386 58.0485C178.811 58.3452 178.077 58.4935 177.183 58.4935H174.029V57.2317H177.138C177.754 57.2317 178.25 57.1416 178.625 56.9613C179.005 56.7811 179.279 56.5257 179.448 56.1952C179.621 55.861 179.707 55.4629 179.707 55.001C179.707 54.5391 179.621 54.1354 179.448 53.7899C179.275 53.4444 178.999 53.1778 178.62 52.99C178.24 52.7985 177.739 52.7027 177.116 52.7027H174.66V63H173.263ZM178.693 57.8176L181.532 63H179.91L177.116 57.8176H178.693ZM186.764 63.1803C185.93 63.1803 185.211 62.9962 184.606 62.6282C184.005 62.2564 183.542 61.7382 183.215 61.0735C182.892 60.405 182.73 59.6277 182.73 58.7414C182.73 57.8551 182.892 57.074 183.215 56.398C183.542 55.7183 183.996 55.1888 184.578 54.8095C185.164 54.4265 185.847 54.2349 186.629 54.2349C187.079 54.2349 187.524 54.31 187.964 54.4603C188.403 54.6105 188.803 54.8546 189.163 55.1926C189.524 55.5268 189.811 55.9699 190.025 56.522C190.239 57.074 190.346 57.7537 190.346 58.5611V59.1244H183.677V57.9753H188.994C188.994 57.4871 188.897 57.0515 188.702 56.6684C188.51 56.2854 188.236 55.9831 187.879 55.7615C187.526 55.5399 187.109 55.4291 186.629 55.4291C186.099 55.4291 185.641 55.5606 185.254 55.8235C184.871 56.0826 184.576 56.4206 184.37 56.8374C184.163 57.2543 184.06 57.7012 184.06 58.1781V58.9442C184.06 59.5976 184.173 60.1515 184.398 60.6059C184.627 61.0566 184.944 61.4002 185.35 61.6368C185.755 61.8696 186.227 61.986 186.764 61.986C187.113 61.986 187.428 61.9372 187.71 61.8396C187.995 61.7382 188.241 61.588 188.448 61.3889C188.655 61.1862 188.814 60.9345 188.927 60.6341L190.211 60.9946C190.076 61.4303 189.849 61.8133 189.53 62.1438C189.21 62.4705 188.816 62.7259 188.347 62.9099C187.877 63.0901 187.35 63.1803 186.764 63.1803ZM199.18 54.3476L195.981 63H194.629L191.429 54.3476H192.871L195.26 61.2425H195.35L197.738 54.3476H199.18ZM203.218 63.2028C202.67 63.2028 202.172 63.0995 201.725 62.893C201.278 62.6827 200.923 62.3804 200.661 61.986C200.398 61.588 200.266 61.1073 200.266 60.544C200.266 60.0483 200.364 59.6464 200.559 59.3385C200.754 59.0268 201.015 58.7827 201.342 58.6062C201.669 58.4297 202.029 58.2983 202.424 58.2119C202.822 58.1218 203.222 58.0504 203.624 57.9978C204.149 57.9302 204.576 57.8795 204.902 57.8457C205.233 57.8082 205.473 57.7462 205.623 57.6598C205.777 57.5735 205.854 57.4233 205.854 57.2092V57.1641C205.854 56.6083 205.702 56.1765 205.398 55.8685C205.098 55.5606 204.641 55.4066 204.029 55.4066C203.394 55.4066 202.897 55.5456 202.536 55.8235C202.176 56.1014 201.922 56.398 201.776 56.7135L200.514 56.2628C200.739 55.7371 201.04 55.3278 201.415 55.0348C201.795 54.7382 202.208 54.5316 202.655 54.4152C203.105 54.295 203.548 54.2349 203.984 54.2349C204.262 54.2349 204.581 54.2687 204.942 54.3363C205.306 54.4002 205.657 54.5335 205.995 54.7363C206.337 54.9391 206.62 55.2451 206.846 55.6545C207.071 56.0638 207.184 56.6121 207.184 57.2993V63H205.854V61.8283H205.787C205.696 62.0161 205.546 62.217 205.336 62.4311C205.126 62.6451 204.846 62.8273 204.497 62.9775C204.147 63.1277 203.721 63.2028 203.218 63.2028ZM203.421 62.0086C203.946 62.0086 204.39 61.9053 204.75 61.6988C205.114 61.4922 205.389 61.2256 205.573 60.8989C205.76 60.5721 205.854 60.2285 205.854 59.868V58.6513C205.798 58.7189 205.674 58.7808 205.482 58.8372C205.295 58.8897 205.077 58.9367 204.829 58.978C204.585 59.0155 204.346 59.0493 204.114 59.0794C203.885 59.1057 203.699 59.1282 203.556 59.147C203.21 59.192 202.887 59.2653 202.587 59.3667C202.29 59.4643 202.05 59.6126 201.866 59.8117C201.686 60.007 201.596 60.2736 201.596 60.6116C201.596 61.0735 201.766 61.4227 202.108 61.6593C202.454 61.8922 202.891 62.0086 203.421 62.0086ZM209.61 63V54.3476H210.894V55.6995H211.007C211.187 55.2376 211.478 54.879 211.88 54.6236C212.282 54.3645 212.765 54.2349 213.328 54.2349C213.899 54.2349 214.374 54.3645 214.753 54.6236C215.136 54.879 215.435 55.2376 215.649 55.6995H215.739C215.96 55.2526 216.293 54.8978 216.736 54.6349C217.179 54.3683 217.71 54.2349 218.33 54.2349C219.104 54.2349 219.736 54.4772 220.228 54.9616C220.72 55.4423 220.966 56.1915 220.966 57.2092V63H219.637V57.2092C219.637 56.5708 219.462 56.1145 219.113 55.8404C218.764 55.5662 218.353 55.4291 217.879 55.4291C217.271 55.4291 216.8 55.6132 216.466 55.9812C216.131 56.3455 215.964 56.8074 215.964 57.3669V63H214.612V57.074C214.612 56.5821 214.453 56.1859 214.133 55.8854C213.814 55.5812 213.403 55.4291 212.9 55.4291C212.554 55.4291 212.231 55.5212 211.931 55.7052C211.634 55.8892 211.394 56.1445 211.21 56.4713C211.03 56.7942 210.939 57.1679 210.939 57.5922V63H209.61ZM223.397 66.2447V54.3476H224.681V55.7221H224.839C224.937 55.5719 225.072 55.3803 225.245 55.1475C225.421 54.9109 225.673 54.7006 225.999 54.5166C226.33 54.3288 226.777 54.2349 227.34 54.2349C228.069 54.2349 228.711 54.4171 229.267 54.7813C229.822 55.1456 230.256 55.662 230.568 56.3304C230.88 56.9989 231.035 57.7875 231.035 58.6963C231.035 59.6126 230.88 60.4069 230.568 61.0791C230.256 61.7476 229.824 62.2658 229.272 62.6339C228.72 62.9981 228.084 63.1803 227.363 63.1803C226.807 63.1803 226.362 63.0883 226.028 62.9042C225.693 62.7165 225.436 62.5043 225.256 62.2677C225.076 62.0274 224.937 61.8283 224.839 61.6706H224.726V66.2447H223.397ZM224.704 58.6738C224.704 59.3272 224.8 59.9037 224.991 60.4032C225.183 60.8989 225.462 61.2875 225.83 61.5692C226.199 61.8471 226.649 61.986 227.182 61.986C227.738 61.986 228.202 61.8396 228.574 61.5467C228.949 61.25 229.231 60.8519 229.419 60.3525C229.61 59.8492 229.706 59.2897 229.706 58.6738C229.706 58.0654 229.612 57.5171 229.424 57.0289C229.24 56.537 228.961 56.1483 228.585 55.8629C228.213 55.5737 227.746 55.4291 227.182 55.4291C226.642 55.4291 226.187 55.5662 225.819 55.8404C225.451 56.1108 225.173 56.49 224.986 56.9782C224.798 57.4627 224.704 58.0279 224.704 58.6738ZM245.276 51.4635H246.673V59.1019C246.673 59.8905 246.487 60.5947 246.115 61.2143C245.747 61.8302 245.227 62.3165 244.555 62.6733C243.883 63.0263 243.094 63.2028 242.189 63.2028C241.284 63.2028 240.495 63.0263 239.823 62.6733C239.151 62.3165 238.629 61.8302 238.257 61.2143C237.889 60.5947 237.705 59.8905 237.705 59.1019V51.4635H239.102V58.9893C239.102 59.5526 239.226 60.0539 239.474 60.4933C239.722 60.9289 240.075 61.2725 240.533 61.5241C240.995 61.772 241.547 61.8959 242.189 61.8959C242.831 61.8959 243.383 61.772 243.845 61.5241C244.307 61.2725 244.66 60.9289 244.904 60.4933C245.152 60.0539 245.276 59.5526 245.276 58.9893V51.4635ZM249.282 66.2447V54.3476H250.567V55.7221H250.724C250.822 55.5719 250.957 55.3803 251.13 55.1475C251.307 54.9109 251.558 54.7006 251.885 54.5166C252.215 54.3288 252.662 54.2349 253.226 54.2349C253.954 54.2349 254.596 54.4171 255.152 54.7813C255.708 55.1456 256.142 55.662 256.453 56.3304C256.765 56.9989 256.921 57.7875 256.921 58.6963C256.921 59.6126 256.765 60.4069 256.453 61.0791C256.142 61.7476 255.71 62.2658 255.158 62.6339C254.606 62.9981 253.969 63.1803 253.248 63.1803C252.692 63.1803 252.247 63.0883 251.913 62.9042C251.579 62.7165 251.322 62.5043 251.141 62.2677C250.961 62.0274 250.822 61.8283 250.724 61.6706H250.612V66.2447H249.282ZM250.589 58.6738C250.589 59.3272 250.685 59.9037 250.877 60.4032C251.068 60.8989 251.348 61.2875 251.716 61.5692C252.084 61.8471 252.535 61.986 253.068 61.986C253.624 61.986 254.087 61.8396 254.459 61.5467C254.835 61.25 255.116 60.8519 255.304 60.3525C255.496 59.8492 255.591 59.2897 255.591 58.6738C255.591 58.0654 255.498 57.5171 255.31 57.0289C255.126 56.537 254.846 56.1483 254.47 55.8629C254.099 55.5737 253.631 55.4291 253.068 55.4291C252.527 55.4291 252.073 55.5662 251.705 55.8404C251.337 56.1108 251.059 56.49 250.871 56.9782C250.683 57.4627 250.589 58.0279 250.589 58.6738ZM262.216 63.1803C261.495 63.1803 260.858 62.9981 260.306 62.6339C259.754 62.2658 259.322 61.7476 259.011 61.0791C258.699 60.4069 258.543 59.6126 258.543 58.6963C258.543 57.7875 258.699 56.9989 259.011 56.3304C259.322 55.662 259.756 55.1456 260.312 54.7813C260.868 54.4171 261.51 54.2349 262.238 54.2349C262.802 54.2349 263.247 54.3288 263.574 54.5166C263.904 54.7006 264.156 54.9109 264.328 55.1475C264.505 55.3803 264.642 55.5719 264.74 55.7221H264.852V51.4635H266.182V63H264.897V61.6706H264.74C264.642 61.8283 264.503 62.0274 264.323 62.2677C264.142 62.5043 263.885 62.7165 263.551 62.9042C263.217 63.0883 262.772 63.1803 262.216 63.1803ZM262.396 61.986C262.929 61.986 263.38 61.8471 263.748 61.5692C264.116 61.2875 264.396 60.8989 264.587 60.4032C264.779 59.9037 264.875 59.3272 264.875 58.6738C264.875 58.0279 264.781 57.4627 264.593 56.9782C264.405 56.49 264.127 56.1108 263.759 55.8404C263.391 55.5662 262.937 55.4291 262.396 55.4291C261.833 55.4291 261.363 55.5737 260.988 55.8629C260.616 56.1483 260.336 56.537 260.149 57.0289C259.965 57.5171 259.873 58.0654 259.873 58.6738C259.873 59.2897 259.966 59.8492 260.154 60.3525C260.346 60.8519 260.627 61.25 260.999 61.5467C261.375 61.8396 261.84 61.986 262.396 61.986ZM271.347 63.2028C270.799 63.2028 270.301 63.0995 269.854 62.893C269.407 62.6827 269.053 62.3804 268.79 61.986C268.527 61.588 268.395 61.1073 268.395 60.544C268.395 60.0483 268.493 59.6464 268.688 59.3385C268.884 59.0268 269.145 58.7827 269.471 58.6062C269.798 58.4297 270.159 58.2983 270.553 58.2119C270.951 58.1218 271.351 58.0504 271.753 57.9978C272.278 57.9302 272.705 57.8795 273.031 57.8457C273.362 57.8082 273.602 57.7462 273.752 57.6598C273.906 57.5735 273.983 57.4233 273.983 57.2092V57.1641C273.983 56.6083 273.831 56.1765 273.527 55.8685C273.227 55.5606 272.77 55.4066 272.158 55.4066C271.524 55.4066 271.026 55.5456 270.666 55.8235C270.305 56.1014 270.052 56.398 269.905 56.7135L268.643 56.2628C268.869 55.7371 269.169 55.3278 269.545 55.0348C269.924 54.7382 270.337 54.5316 270.784 54.4152C271.234 54.295 271.678 54.2349 272.113 54.2349C272.391 54.2349 272.71 54.2687 273.071 54.3363C273.435 54.4002 273.786 54.5335 274.124 54.7363C274.466 54.9391 274.75 55.2451 274.975 55.6545C275.2 56.0638 275.313 56.6121 275.313 57.2993V63H273.983V61.8283H273.916C273.826 62.0161 273.675 62.217 273.465 62.4311C273.255 62.6451 272.975 62.8273 272.626 62.9775C272.277 63.1277 271.85 63.2028 271.347 63.2028ZM271.55 62.0086C272.076 62.0086 272.519 61.9053 272.879 61.6988C273.244 61.4922 273.518 61.2256 273.702 60.8989C273.89 60.5721 273.983 60.2285 273.983 59.868V58.6513C273.927 58.7189 273.803 58.7808 273.612 58.8372C273.424 58.8897 273.206 58.9367 272.958 58.978C272.714 59.0155 272.476 59.0493 272.243 59.0794C272.014 59.1057 271.828 59.1282 271.685 59.147C271.34 59.192 271.017 59.2653 270.716 59.3667C270.42 59.4643 270.179 59.6126 269.995 59.8117C269.815 60.007 269.725 60.2736 269.725 60.6116C269.725 61.0735 269.896 61.4227 270.237 61.6593C270.583 61.8922 271.02 62.0086 271.55 62.0086ZM281.502 54.3476V55.4742H277.018V54.3476H281.502ZM278.325 52.2746H279.655V60.5214C279.655 60.897 279.709 61.1786 279.818 61.3664C279.931 61.5504 280.073 61.6743 280.246 61.7382C280.423 61.7983 280.608 61.8283 280.804 61.8283C280.95 61.8283 281.07 61.8208 281.164 61.8058C281.258 61.787 281.333 61.772 281.39 61.7607L281.66 62.9549C281.57 62.9887 281.444 63.0225 281.282 63.0563C281.121 63.0939 280.916 63.1127 280.668 63.1127C280.293 63.1127 279.925 63.0319 279.564 62.8704C279.208 62.709 278.911 62.463 278.674 62.1325C278.442 61.802 278.325 61.3852 278.325 60.882V52.2746ZM287.037 63.1803C286.203 63.1803 285.484 62.9962 284.879 62.6282C284.278 62.2564 283.815 61.7382 283.488 61.0735C283.165 60.405 283.003 59.6277 283.003 58.7414C283.003 57.8551 283.165 57.074 283.488 56.398C283.815 55.7183 284.269 55.1888 284.851 54.8095C285.437 54.4265 286.12 54.2349 286.901 54.2349C287.352 54.2349 287.797 54.31 288.237 54.4603C288.676 54.6105 289.076 54.8546 289.436 55.1926C289.797 55.5268 290.084 55.9699 290.298 56.522C290.512 57.074 290.619 57.7537 290.619 58.5611V59.1244H283.95V57.9753H289.267C289.267 57.4871 289.17 57.0515 288.974 56.6684C288.783 56.2854 288.509 55.9831 288.152 55.7615C287.799 55.5399 287.382 55.4291 286.901 55.4291C286.372 55.4291 285.914 55.5606 285.527 55.8235C285.144 56.0826 284.849 56.4206 284.643 56.8374C284.436 57.2543 284.333 57.7012 284.333 58.1781V58.9442C284.333 59.5976 284.445 60.1515 284.671 60.6059C284.9 61.0566 285.217 61.4002 285.623 61.6368C286.028 61.8696 286.5 61.986 287.037 61.986C287.386 61.986 287.701 61.9372 287.983 61.8396C288.268 61.7382 288.514 61.588 288.721 61.3889C288.928 61.1862 289.087 60.9345 289.2 60.6341L290.484 60.9946C290.349 61.4303 290.122 61.8133 289.803 62.1438C289.483 62.4705 289.089 62.7259 288.62 62.9099C288.15 63.0901 287.623 63.1803 287.037 63.1803ZM300.618 63.1803C299.837 63.1803 299.152 62.9944 298.562 62.6226C297.976 62.2508 297.518 61.7307 297.187 61.0622C296.861 60.3938 296.697 59.6126 296.697 58.7189C296.697 57.8176 296.861 57.0308 297.187 56.3586C297.518 55.6864 297.976 55.1644 298.562 54.7926C299.152 54.4208 299.837 54.2349 300.618 54.2349C301.399 54.2349 302.083 54.4208 302.668 54.7926C303.258 55.1644 303.716 55.6864 304.043 56.3586C304.373 57.0308 304.539 57.8176 304.539 58.7189C304.539 59.6126 304.373 60.3938 304.043 61.0622C303.716 61.7307 303.258 62.2508 302.668 62.6226C302.083 62.9944 301.399 63.1803 300.618 63.1803ZM300.618 61.986C301.211 61.986 301.7 61.834 302.083 61.5298C302.466 61.2256 302.749 60.8256 302.933 60.3299C303.117 59.8342 303.209 59.2972 303.209 58.7189C303.209 58.1405 303.117 57.6016 302.933 57.1022C302.749 56.6027 302.466 56.199 302.083 55.8911C301.7 55.5831 301.211 55.4291 300.618 55.4291C300.025 55.4291 299.536 55.5831 299.153 55.8911C298.77 56.199 298.487 56.6027 298.303 57.1022C298.119 57.6016 298.027 58.1405 298.027 58.7189C298.027 59.2972 298.119 59.8342 298.303 60.3299C298.487 60.8256 298.77 61.2256 299.153 61.5298C299.536 61.834 300.025 61.986 300.618 61.986ZM310.421 54.3476V55.4742H305.757V54.3476H310.421ZM307.154 63V53.1534C307.154 52.6577 307.27 52.2446 307.503 51.9141C307.736 51.5836 308.038 51.3358 308.41 51.1705C308.782 51.0053 309.174 50.9227 309.587 50.9227C309.914 50.9227 310.181 50.949 310.387 51.0016C310.594 51.0541 310.748 51.1029 310.849 51.148L310.466 52.2972C310.398 52.2746 310.305 52.2465 310.184 52.2127C310.068 52.1789 309.914 52.162 309.722 52.162C309.283 52.162 308.966 52.2727 308.77 52.4943C308.579 52.7159 308.483 53.0407 308.483 53.4688V63H307.154ZM49.2167 85.2447V73.3476H50.5011V74.7221H50.6588C50.7565 74.5719 50.8916 74.3803 51.0644 74.1475C51.2409 73.9109 51.4925 73.7006 51.8192 73.5166C52.1497 73.3288 52.5966 73.2349 53.1599 73.2349C53.8884 73.2349 54.5306 73.4171 55.0864 73.7813C55.6422 74.1456 56.076 74.662 56.3876 75.3304C56.6993 75.9989 56.8552 76.7875 56.8552 77.6963C56.8552 78.6126 56.6993 79.4069 56.3876 80.0791C56.076 80.7476 55.6441 81.2658 55.092 81.6339C54.54 81.9981 53.9035 82.1803 53.1824 82.1803C52.6266 82.1803 52.1816 82.0883 51.8474 81.9042C51.5132 81.7165 51.2559 81.5043 51.0757 81.2677C50.8954 81.0274 50.7565 80.8283 50.6588 80.6706H50.5461V85.2447H49.2167ZM50.5236 77.6738C50.5236 78.3272 50.6194 78.9037 50.8109 79.4032C51.0024 79.8989 51.2822 80.2875 51.6502 80.5692C52.0183 80.8471 52.4689 80.986 53.0022 80.986C53.558 80.986 54.0218 80.8396 54.3935 80.5467C54.7691 80.25 55.0507 79.8519 55.2385 79.3525C55.43 78.8492 55.5258 78.2897 55.5258 77.6738C55.5258 77.0654 55.4319 76.5171 55.2441 76.0289C55.0601 75.537 54.7803 75.1483 54.4048 74.8629C54.033 74.5737 53.5655 74.4291 53.0022 74.4291C52.4614 74.4291 52.007 74.5662 51.639 74.8404C51.2709 75.1108 50.993 75.49 50.8053 75.9782C50.6175 76.4627 50.5236 77.0279 50.5236 77.6738ZM62.5108 82.1803C61.6771 82.1803 60.9579 81.9962 60.3533 81.6282C59.7525 81.2564 59.2887 80.7382 58.962 80.0735C58.639 79.405 58.4775 78.6277 58.4775 77.7414C58.4775 76.8551 58.639 76.074 58.962 75.398C59.2887 74.7183 59.7431 74.1888 60.3252 73.8095C60.911 73.4265 61.5945 73.2349 62.3756 73.2349C62.8262 73.2349 63.2713 73.31 63.7106 73.4603C64.15 73.6105 64.55 73.8546 64.9105 74.1926C65.271 74.5268 65.5583 74.9699 65.7723 75.522C65.9864 76.074 66.0934 76.7537 66.0934 77.5611V78.1244H59.4239V76.9753H64.7415C64.7415 76.4871 64.6439 76.0515 64.4486 75.6684C64.2571 75.2854 63.9829 74.9831 63.6261 74.7615C63.2731 74.5399 62.8563 74.4291 62.3756 74.4291C61.8461 74.4291 61.3879 74.5606 61.0011 74.8235C60.6181 75.0826 60.3233 75.4206 60.1167 75.8374C59.9102 76.2543 59.8069 76.7012 59.8069 77.1781V77.9442C59.8069 78.5976 59.9196 79.1515 60.1449 79.6059C60.374 80.0566 60.6913 80.4002 61.0969 80.6368C61.5025 80.8696 61.9738 80.986 62.5108 80.986C62.86 80.986 63.1755 80.9372 63.4572 80.8396C63.7426 80.7382 63.9885 80.588 64.1951 80.3889C64.4016 80.1862 64.5612 79.9345 64.6739 79.6341L65.9582 79.9946C65.823 80.4303 65.5958 80.8133 65.2766 81.1438C64.9574 81.4705 64.5631 81.7259 64.0937 81.9099C63.6243 82.0901 63.0966 82.1803 62.5108 82.1803ZM71.8786 73.3476V74.4742H67.3947V73.3476H71.8786ZM68.7015 71.2746H70.031V79.5214C70.031 79.897 70.0854 80.1786 70.1943 80.3664C70.307 80.5504 70.4497 80.6743 70.6224 80.7382C70.7989 80.7983 70.9848 80.8283 71.1801 80.8283C71.3266 80.8283 71.4467 80.8208 71.5406 80.8058C71.6345 80.787 71.7096 80.772 71.7659 80.7607L72.0363 81.9549C71.9462 81.9887 71.8204 82.0225 71.6589 82.0563C71.4974 82.0939 71.2928 82.1127 71.0449 82.1127C70.6694 82.1127 70.3013 82.0319 69.9408 81.8704C69.5841 81.709 69.2874 81.463 69.0508 81.1325C68.818 80.802 68.7015 80.3852 68.7015 79.882V71.2746ZM77.4131 82.1803C76.5794 82.1803 75.8602 81.9962 75.2556 81.6282C74.6548 81.2564 74.191 80.7382 73.8643 80.0735C73.5413 79.405 73.3798 78.6277 73.3798 77.7414C73.3798 76.8551 73.5413 76.074 73.8643 75.398C74.191 74.7183 74.6454 74.1888 75.2275 73.8095C75.8133 73.4265 76.4968 73.2349 77.2779 73.2349C77.7285 73.2349 78.1736 73.31 78.6129 73.4603C79.0523 73.6105 79.4523 73.8546 79.8128 74.1926C80.1733 74.5268 80.4606 74.9699 80.6746 75.522C80.8887 76.074 80.9957 76.7537 80.9957 77.5611V78.1244H74.3262V76.9753H79.6438C79.6438 76.4871 79.5462 76.0515 79.3509 75.6684C79.1593 75.2854 78.8852 74.9831 78.5284 74.7615C78.1754 74.5399 77.7586 74.4291 77.2779 74.4291C76.7484 74.4291 76.2902 74.5606 75.9034 74.8235C75.5204 75.0826 75.2256 75.4206 75.019 75.8374C74.8125 76.2543 74.7092 76.7012 74.7092 77.1781V77.9442C74.7092 78.5976 74.8219 79.1515 75.0472 79.6059C75.2763 80.0566 75.5936 80.4002 75.9992 80.6368C76.4048 80.8696 76.8761 80.986 77.4131 80.986C77.7623 80.986 78.0778 80.9372 78.3595 80.8396C78.6449 80.7382 78.8908 80.588 79.0974 80.3889C79.3039 80.1862 79.4635 79.9345 79.5762 79.6341L80.8605 79.9946C80.7253 80.4303 80.4981 80.8133 80.1789 81.1438C79.8597 81.4705 79.4654 81.7259 78.996 81.9099C78.5266 82.0901 77.9989 82.1803 77.4131 82.1803ZM83.018 82V73.3476H84.3023V74.6545H84.3925C84.5502 74.2264 84.8356 73.879 85.2487 73.6124C85.6618 73.3457 86.1275 73.2124 86.6457 73.2124C86.7433 73.2124 86.8654 73.2143 87.0119 73.218C87.1583 73.2218 87.2691 73.2274 87.3442 73.2349V74.5869C87.2991 74.5756 87.1959 74.5587 87.0344 74.5362C86.8767 74.5099 86.7095 74.4967 86.533 74.4967C86.1124 74.4967 85.7369 74.585 85.4064 74.7615C85.0797 74.9342 84.8206 75.1746 84.6291 75.4825C84.4413 75.7867 84.3474 76.1341 84.3474 76.5247V82H83.018ZM99.5102 75.2854L98.316 75.6234C98.2409 75.4243 98.1301 75.2309 97.9837 75.0432C97.841 74.8516 97.6457 74.6939 97.3978 74.57C97.15 74.446 96.8326 74.3841 96.4458 74.3841C95.9163 74.3841 95.4751 74.5061 95.1221 74.7502C94.7728 74.9906 94.5982 75.2966 94.5982 75.6684C94.5982 75.9989 94.7184 76.2599 94.9587 76.4514C95.1991 76.6429 95.5746 76.8026 96.0853 76.9302L97.3697 77.2457C98.1433 77.4335 98.7197 77.7207 99.099 78.1075C99.4783 78.4906 99.668 78.9844 99.668 79.589C99.668 80.0848 99.5253 80.5279 99.2398 80.9184C98.9582 81.309 98.5639 81.617 98.0569 81.8423C97.5499 82.0676 96.9603 82.1803 96.2881 82.1803C95.4056 82.1803 94.6752 81.9887 94.0969 81.6057C93.5185 81.2226 93.1524 80.6631 92.9984 79.927L94.2602 79.6116C94.3804 80.0772 94.6076 80.4265 94.9418 80.6593C95.2798 80.8922 95.7211 81.0086 96.2656 81.0086C96.8852 81.0086 97.3772 80.8771 97.7415 80.6143C98.1095 80.3476 98.2935 80.0284 98.2935 79.6566C98.2935 79.3562 98.1883 79.1046 97.978 78.9018C97.7677 78.6953 97.4448 78.5413 97.0092 78.4399L95.5671 78.1019C94.7747 77.9141 94.1926 77.6231 93.8208 77.2288C93.4528 76.8307 93.2688 76.3331 93.2688 75.736C93.2688 75.2478 93.4059 74.816 93.68 74.4404C93.9579 74.0649 94.3353 73.7701 94.8123 73.556C95.2929 73.342 95.8375 73.2349 96.4458 73.2349C97.3021 73.2349 97.9743 73.4227 98.4625 73.7982C98.9544 74.1738 99.3037 74.6695 99.5102 75.2854ZM102.999 76.795V82H101.669V70.4635H102.999V74.6995H103.111C103.314 74.2526 103.618 73.8978 104.024 73.6349C104.433 73.3683 104.978 73.2349 105.657 73.2349C106.247 73.2349 106.763 73.3532 107.206 73.5898C107.65 73.8227 107.993 74.1813 108.237 74.6657C108.485 75.1464 108.609 75.7586 108.609 76.5021V82H107.28V76.5922C107.28 75.905 107.101 75.3736 106.745 74.9981C106.392 74.6188 105.901 74.4291 105.274 74.4291C104.839 74.4291 104.448 74.5212 104.103 74.7052C103.761 74.8892 103.49 75.1577 103.291 75.5107C103.096 75.8637 102.999 76.2918 102.999 76.795ZM113.587 82.2028C113.039 82.2028 112.541 82.0995 112.095 81.893C111.648 81.6827 111.293 81.3804 111.03 80.986C110.767 80.588 110.636 80.1073 110.636 79.544C110.636 79.0483 110.733 78.6464 110.928 78.3385C111.124 78.0268 111.385 77.7827 111.711 77.6062C112.038 77.4297 112.399 77.2983 112.793 77.2119C113.191 77.1218 113.591 77.0504 113.993 76.9978C114.519 76.9302 114.945 76.8795 115.272 76.8457C115.602 76.8082 115.842 76.7462 115.993 76.6598C116.147 76.5735 116.224 76.4233 116.224 76.2092V76.1641C116.224 75.6083 116.071 75.1765 115.767 74.8685C115.467 74.5606 115.011 74.4066 114.398 74.4066C113.764 74.4066 113.266 74.5456 112.906 74.8235C112.545 75.1014 112.292 75.398 112.145 75.7135L110.883 75.2628C111.109 74.7371 111.409 74.3278 111.785 74.0348C112.164 73.7382 112.577 73.5316 113.024 73.4152C113.475 73.295 113.918 73.2349 114.353 73.2349C114.631 73.2349 114.95 73.2687 115.311 73.3363C115.675 73.4002 116.026 73.5335 116.364 73.7363C116.706 73.9391 116.99 74.2451 117.215 74.6545C117.44 75.0638 117.553 75.6121 117.553 76.2993V82H116.224V80.8283H116.156C116.066 81.0161 115.916 81.217 115.705 81.4311C115.495 81.6451 115.215 81.8273 114.866 81.9775C114.517 82.1277 114.091 82.2028 113.587 82.2028ZM113.79 81.0086C114.316 81.0086 114.759 80.9053 115.119 80.6988C115.484 80.4922 115.758 80.2256 115.942 79.8989C116.13 79.5721 116.224 79.2285 116.224 78.868V77.6513C116.167 77.7189 116.043 77.7808 115.852 77.8372C115.664 77.8897 115.446 77.9367 115.198 77.978C114.954 78.0155 114.716 78.0493 114.483 78.0794C114.254 78.1057 114.068 78.1282 113.925 78.147C113.58 78.192 113.257 78.2653 112.956 78.3667C112.66 78.4643 112.419 78.6126 112.235 78.8117C112.055 79.007 111.965 79.2736 111.965 79.6116C111.965 80.0735 112.136 80.4227 112.478 80.6593C112.823 80.8922 113.261 81.0086 113.79 81.0086ZM122.526 82.2028C121.977 82.2028 121.48 82.0995 121.033 81.893C120.586 81.6827 120.231 81.3804 119.968 80.986C119.705 80.588 119.574 80.1073 119.574 79.544C119.574 79.0483 119.671 78.6464 119.867 78.3385C120.062 78.0268 120.323 77.7827 120.65 77.6062C120.976 77.4297 121.337 77.2983 121.731 77.2119C122.129 77.1218 122.529 77.0504 122.931 76.9978C123.457 76.9302 123.883 76.8795 124.21 76.8457C124.54 76.8082 124.781 76.7462 124.931 76.6598C125.085 76.5735 125.162 76.4233 125.162 76.2092V76.1641C125.162 75.6083 125.01 75.1765 124.706 74.8685C124.405 74.5606 123.949 74.4066 123.337 74.4066C122.702 74.4066 122.204 74.5456 121.844 74.8235C121.483 75.1014 121.23 75.398 121.083 75.7135L119.822 75.2628C120.047 74.7371 120.347 74.3278 120.723 74.0348C121.102 73.7382 121.515 73.5316 121.962 73.4152C122.413 73.295 122.856 73.2349 123.292 73.2349C123.57 73.2349 123.889 73.2687 124.249 73.3363C124.614 73.4002 124.965 73.5335 125.303 73.7363C125.644 73.9391 125.928 74.2451 126.153 74.6545C126.379 75.0638 126.491 75.6121 126.491 76.2993V82H125.162V80.8283H125.094C125.004 81.0161 124.854 81.217 124.644 81.4311C124.433 81.6451 124.154 81.8273 123.804 81.9775C123.455 82.1277 123.029 82.2028 122.526 82.2028ZM122.728 81.0086C123.254 81.0086 123.697 80.9053 124.058 80.6988C124.422 80.4922 124.696 80.2256 124.88 79.8989C125.068 79.5721 125.162 79.2285 125.162 78.868V77.6513C125.106 77.7189 124.982 77.7808 124.79 77.8372C124.602 77.8897 124.384 77.9367 124.137 77.978C123.893 78.0155 123.654 78.0493 123.421 78.0794C123.192 78.1057 123.006 78.1282 122.864 78.147C122.518 78.192 122.195 78.2653 121.895 78.3667C121.598 78.4643 121.358 78.6126 121.174 78.8117C120.993 79.007 120.903 79.2736 120.903 79.6116C120.903 80.0735 121.074 80.4227 121.416 80.6593C121.761 80.8922 122.199 81.0086 122.728 81.0086ZM130.247 76.795V82H128.918V73.3476H130.202V74.6995H130.315C130.517 74.2602 130.825 73.9072 131.239 73.6405C131.652 73.3701 132.185 73.2349 132.838 73.2349C133.424 73.2349 133.937 73.3551 134.376 73.5955C134.816 73.832 135.157 74.1926 135.401 74.677C135.645 75.1577 135.768 75.7661 135.768 76.5021V82H134.438V76.5922C134.438 75.9125 134.262 75.383 133.909 75.0037C133.556 74.6207 133.071 74.4291 132.455 74.4291C132.031 74.4291 131.652 74.5212 131.317 74.7052C130.987 74.8892 130.726 75.1577 130.534 75.5107C130.343 75.8637 130.247 76.2918 130.247 76.795ZM142.658 85.2447V73.3476H143.943V74.7221H144.1C144.198 74.5719 144.333 74.3803 144.506 74.1475C144.682 73.9109 144.934 73.7006 145.261 73.5166C145.591 73.3288 146.038 73.2349 146.601 73.2349C147.33 73.2349 147.972 73.4171 148.528 73.7813C149.084 74.1456 149.517 74.662 149.829 75.3304C150.141 75.9989 150.297 76.7875 150.297 77.6963C150.297 78.6126 150.141 79.4069 149.829 80.0791C149.517 80.7476 149.086 81.2658 148.533 81.6339C147.981 81.9981 147.345 82.1803 146.624 82.1803C146.068 82.1803 145.623 82.0883 145.289 81.9042C144.955 81.7165 144.697 81.5043 144.517 81.2677C144.337 81.0274 144.198 80.8283 144.1 80.6706H143.988V85.2447H142.658ZM143.965 77.6738C143.965 78.3272 144.061 78.9037 144.252 79.4032C144.444 79.8989 144.724 80.2875 145.092 80.5692C145.46 80.8471 145.91 80.986 146.444 80.986C146.999 80.986 147.463 80.8396 147.835 80.5467C148.211 80.25 148.492 79.8519 148.68 79.3525C148.871 78.8492 148.967 78.2897 148.967 77.6738C148.967 77.0654 148.873 76.5171 148.686 76.0289C148.502 75.537 148.222 75.1483 147.846 74.8629C147.474 74.5737 147.007 74.4291 146.444 74.4291C145.903 74.4291 145.448 74.5662 145.08 74.8404C144.712 75.1108 144.434 75.49 144.247 75.9782C144.059 76.4627 143.965 77.0279 143.965 77.6738ZM155.84 82.1803C155.058 82.1803 154.373 81.9944 153.783 81.6226C153.198 81.2508 152.739 80.7307 152.409 80.0622C152.082 79.3938 151.919 78.6126 151.919 77.7189C151.919 76.8176 152.082 76.0308 152.409 75.3586C152.739 74.6864 153.198 74.1644 153.783 73.7926C154.373 73.4208 155.058 73.2349 155.84 73.2349C156.621 73.2349 157.304 73.4208 157.89 73.7926C158.48 74.1644 158.938 74.6864 159.264 75.3586C159.595 76.0308 159.76 76.8176 159.76 77.7189C159.76 78.6126 159.595 79.3938 159.264 80.0622C158.938 80.7307 158.48 81.2508 157.89 81.6226C157.304 81.9944 156.621 82.1803 155.84 82.1803ZM155.84 80.986C156.433 80.986 156.921 80.834 157.304 80.5298C157.687 80.2256 157.971 79.8256 158.155 79.3299C158.339 78.8342 158.431 78.2972 158.431 77.7189C158.431 77.1405 158.339 76.6016 158.155 76.1022C157.971 75.6027 157.687 75.199 157.304 74.8911C156.921 74.5831 156.433 74.4291 155.84 74.4291C155.246 74.4291 154.758 74.5831 154.375 74.8911C153.992 75.199 153.708 75.6027 153.524 76.1022C153.34 76.6016 153.248 77.1405 153.248 77.7189C153.248 78.2972 153.34 78.8342 153.524 79.3299C153.708 79.8256 153.992 80.2256 154.375 80.5298C154.758 80.834 155.246 80.986 155.84 80.986ZM161.789 82V73.3476H163.074V74.6545H163.164C163.322 74.2264 163.607 73.879 164.02 73.6124C164.433 73.3457 164.899 73.2124 165.417 73.2124C165.515 73.2124 165.637 73.2143 165.783 73.218C165.93 73.2218 166.041 73.2274 166.116 73.2349V74.5869C166.071 74.5756 165.967 74.5587 165.806 74.5362C165.648 74.5099 165.481 74.4967 165.305 74.4967C164.884 74.4967 164.508 74.585 164.178 74.7615C163.851 74.9342 163.592 75.1746 163.401 75.4825C163.213 75.7867 163.119 76.1341 163.119 76.5247V82H161.789ZM171.997 73.3476V74.4742H167.513V73.3476H171.997ZM168.82 71.2746H170.149V79.5214C170.149 79.897 170.203 80.1786 170.312 80.3664C170.425 80.5504 170.568 80.6743 170.74 80.7382C170.917 80.7983 171.103 80.8283 171.298 80.8283C171.445 80.8283 171.565 80.8208 171.659 80.8058C171.753 80.787 171.828 80.772 171.884 80.7607L172.154 81.9549C172.064 81.9887 171.938 82.0225 171.777 82.0563C171.615 82.0939 171.411 82.1127 171.163 82.1127C170.787 82.1127 170.419 82.0319 170.059 81.8704C169.702 81.709 169.405 81.463 169.169 81.1325C168.936 80.802 168.82 80.3852 168.82 79.882V71.2746ZM177.418 82.1803C176.637 82.1803 175.952 81.9944 175.362 81.6226C174.777 81.2508 174.318 80.7307 173.988 80.0622C173.661 79.3938 173.498 78.6126 173.498 77.7189C173.498 76.8176 173.661 76.0308 173.988 75.3586C174.318 74.6864 174.777 74.1644 175.362 73.7926C175.952 73.4208 176.637 73.2349 177.418 73.2349C178.2 73.2349 178.883 73.4208 179.469 73.7926C180.058 74.1644 180.517 74.6864 180.843 75.3586C181.174 76.0308 181.339 76.8176 181.339 77.7189C181.339 78.6126 181.174 79.3938 180.843 80.0622C180.517 80.7307 180.058 81.2508 179.469 81.6226C178.883 81.9944 178.2 82.1803 177.418 82.1803ZM177.418 80.986C178.012 80.986 178.5 80.834 178.883 80.5298C179.266 80.2256 179.55 79.8256 179.734 79.3299C179.918 78.8342 180.01 78.2972 180.01 77.7189C180.01 77.1405 179.918 76.6016 179.734 76.1022C179.55 75.6027 179.266 75.199 178.883 74.8911C178.5 74.5831 178.012 74.4291 177.418 74.4291C176.825 74.4291 176.337 74.5831 175.954 74.8911C175.571 75.199 175.287 75.6027 175.103 76.1022C174.919 76.6016 174.827 77.1405 174.827 77.7189C174.827 78.2972 174.919 78.8342 175.103 79.3299C175.287 79.8256 175.571 80.2256 175.954 80.5298C176.337 80.834 176.825 80.986 177.418 80.986ZM187.221 73.3476V74.4742H182.557V73.3476H187.221ZM183.954 82V72.1534C183.954 71.6577 184.071 71.2446 184.303 70.9141C184.536 70.5836 184.839 70.3358 185.21 70.1705C185.582 70.0053 185.975 69.9227 186.388 69.9227C186.714 69.9227 186.981 69.949 187.188 70.0016C187.394 70.0541 187.548 70.1029 187.65 70.148L187.266 71.2972C187.199 71.2746 187.105 71.2465 186.985 71.2127C186.868 71.1789 186.714 71.162 186.523 71.162C186.084 71.162 185.766 71.2727 185.571 71.4943C185.379 71.7159 185.284 72.0407 185.284 72.4688V82H183.954ZM192.243 82.1803C191.462 82.1803 190.777 81.9944 190.187 81.6226C189.601 81.2508 189.143 80.7307 188.813 80.0622C188.486 79.3938 188.323 78.6126 188.323 77.7189C188.323 76.8176 188.486 76.0308 188.813 75.3586C189.143 74.6864 189.601 74.1644 190.187 73.7926C190.777 73.4208 191.462 73.2349 192.243 73.2349C193.024 73.2349 193.708 73.4208 194.294 73.7926C194.883 74.1644 195.341 74.6864 195.668 75.3586C195.999 76.0308 196.164 76.8176 196.164 77.7189C196.164 78.6126 195.999 79.3938 195.668 80.0622C195.341 80.7307 194.883 81.2508 194.294 81.6226C193.708 81.9944 193.024 82.1803 192.243 82.1803ZM192.243 80.986C192.837 80.986 193.325 80.834 193.708 80.5298C194.091 80.2256 194.374 79.8256 194.558 79.3299C194.743 78.8342 194.835 78.2972 194.835 77.7189C194.835 77.1405 194.743 76.6016 194.558 76.1022C194.374 75.6027 194.091 75.199 193.708 74.8911C193.325 74.5831 192.837 74.4291 192.243 74.4291C191.65 74.4291 191.162 74.5831 190.779 74.8911C190.396 75.199 190.112 75.6027 189.928 76.1022C189.744 76.6016 189.652 77.1405 189.652 77.7189C189.652 78.2972 189.744 78.8342 189.928 79.3299C190.112 79.8256 190.396 80.2256 190.779 80.5298C191.162 80.834 191.65 80.986 192.243 80.986ZM199.523 70.4635V82H198.193V70.4635H199.523ZM201.958 82V73.3476H203.287V82H201.958ZM202.634 71.9055C202.374 71.9055 202.151 71.8173 201.963 71.6408C201.779 71.4643 201.687 71.2521 201.687 71.0042C201.687 70.7564 201.779 70.5442 201.963 70.3677C202.151 70.1912 202.374 70.1029 202.634 70.1029C202.893 70.1029 203.114 70.1912 203.298 70.3677C203.486 70.5442 203.58 70.7564 203.58 71.0042C203.58 71.2521 203.486 71.4643 203.298 71.6408C203.114 71.8173 202.893 71.9055 202.634 71.9055ZM209.237 82.1803C208.456 82.1803 207.77 81.9944 207.181 81.6226C206.595 81.2508 206.137 80.7307 205.806 80.0622C205.48 79.3938 205.316 78.6126 205.316 77.7189C205.316 76.8176 205.48 76.0308 205.806 75.3586C206.137 74.6864 206.595 74.1644 207.181 73.7926C207.77 73.4208 208.456 73.2349 209.237 73.2349C210.018 73.2349 210.701 73.4208 211.287 73.7926C211.877 74.1644 212.335 74.6864 212.662 75.3586C212.992 76.0308 213.157 76.8176 213.157 77.7189C213.157 78.6126 212.992 79.3938 212.662 80.0622C212.335 80.7307 211.877 81.2508 211.287 81.6226C210.701 81.9944 210.018 82.1803 209.237 82.1803ZM209.237 80.986C209.83 80.986 210.318 80.834 210.701 80.5298C211.085 80.2256 211.368 79.8256 211.552 79.3299C211.736 78.8342 211.828 78.2972 211.828 77.7189C211.828 77.1405 211.736 76.6016 211.552 76.1022C211.368 75.6027 211.085 75.199 210.701 74.8911C210.318 74.5831 209.83 74.4291 209.237 74.4291C208.644 74.4291 208.155 74.5831 207.772 74.8911C207.389 75.199 207.106 75.6027 206.922 76.1022C206.738 76.6016 206.646 77.1405 206.646 77.7189C206.646 78.2972 206.738 78.8342 206.922 79.3299C207.106 79.8256 207.389 80.2256 207.772 80.5298C208.155 80.834 208.644 80.986 209.237 80.986Z" fill="black"/>
<path d="M56.7763 102.348L53.695 111H51.4418L48.3605 102.348H50.5349L52.5234 108.775H52.6135L54.6076 102.348H56.7763ZM58.1874 111V102.348H60.2266V111H58.1874ZM59.2126 101.12C58.8897 101.12 58.6118 101.013 58.3789 100.799C58.1461 100.581 58.0297 100.32 58.0297 100.016C58.0297 99.7076 58.1461 99.4466 58.3789 99.2325C58.6118 99.0147 58.8897 98.9058 59.2126 98.9058C59.5394 98.9058 59.8172 99.0147 60.0463 99.2325C60.2792 99.4466 60.3956 99.7076 60.3956 100.016C60.3956 100.32 60.2792 100.581 60.0463 100.799C59.8172 101.013 59.5394 101.12 59.2126 101.12ZM69.162 104.635L67.3031 104.837C67.2506 104.65 67.1586 104.473 67.0271 104.308C66.8994 104.143 66.7267 104.009 66.5089 103.908C66.2911 103.807 66.0244 103.756 65.709 103.756C65.2846 103.756 64.9279 103.848 64.6387 104.032C64.3533 104.216 64.2125 104.454 64.2162 104.747C64.2125 104.999 64.3045 105.204 64.4922 105.361C64.6838 105.519 64.9992 105.649 65.4386 105.75L66.9145 106.065C67.7331 106.242 68.3415 106.522 68.7396 106.905C69.1414 107.288 69.3442 107.789 69.3479 108.409C69.3442 108.953 69.1846 109.434 68.8691 109.851C68.5574 110.264 68.1237 110.587 67.5679 110.82C67.0121 111.053 66.3737 111.169 65.6526 111.169C64.5936 111.169 63.7412 110.947 63.0952 110.504C62.4493 110.057 62.0644 109.436 61.9404 108.64L63.9289 108.448C64.0191 108.839 64.2106 109.134 64.5035 109.333C64.7964 109.532 65.1776 109.631 65.647 109.631C66.1315 109.631 66.5201 109.532 66.8131 109.333C67.1097 109.134 67.2581 108.888 67.2581 108.595C67.2581 108.347 67.1623 108.142 66.9708 107.981C66.783 107.819 66.4901 107.695 66.092 107.609L64.6162 107.299C63.7862 107.126 63.1722 106.835 62.7741 106.426C62.3761 106.013 62.1789 105.491 62.1827 104.86C62.1789 104.327 62.3235 103.865 62.6164 103.474C62.9131 103.08 63.3243 102.776 63.8501 102.562C64.3796 102.344 64.9898 102.235 65.6808 102.235C66.6948 102.235 67.4928 102.451 68.0749 102.883C68.6607 103.315 69.0231 103.899 69.162 104.635ZM71.0294 111V102.348H73.0686V111H71.0294ZM72.0546 101.12C71.7317 101.12 71.4538 101.013 71.2209 100.799C70.9881 100.581 70.8717 100.32 70.8717 100.016C70.8717 99.7076 70.9881 99.4466 71.2209 99.2325C71.4538 99.0147 71.7317 98.9058 72.0546 98.9058C72.3814 98.9058 72.6593 99.0147 72.8883 99.2325C73.1212 99.4466 73.2376 99.7076 73.2376 100.016C73.2376 100.32 73.1212 100.581 72.8883 100.799C72.6593 101.013 72.3814 101.12 72.0546 101.12ZM79.4861 102.348V103.925H74.5121V102.348H79.4861ZM75.7401 100.275H77.7792V108.398C77.7792 108.672 77.8206 108.882 77.9032 109.028C77.9895 109.171 78.1022 109.269 78.2412 109.321C78.3801 109.374 78.5341 109.4 78.7031 109.4C78.8308 109.4 78.9472 109.391 79.0523 109.372C79.1612 109.353 79.2438 109.336 79.3002 109.321L79.6438 110.916C79.5349 110.953 79.379 110.994 79.1762 111.039C78.9772 111.084 78.7331 111.111 78.4439 111.118C77.9332 111.133 77.4732 111.056 77.0638 110.887C76.6545 110.715 76.3297 110.448 76.0893 110.087C75.8527 109.727 75.7363 109.276 75.7401 108.736V100.275Z" fill="black"/>
<defs>
<filter id="filter0_d_2619_67" x="0" y="0" width="396" height="151" filterUnits="userSpaceOnUse" color-interpolation-filters="sRGB">
<feFlood flood-opacity="0" result="BackgroundImageFix"/>
<feColorMatrix in="SourceAlpha" type="matrix" values="0 0 0 0 0 0 0 0 0 0 0 0 0 0 0 0 0 0 127 0" result="hardAlpha"/>
<feOffset dx="16" dy="16"/>
<feComposite in2="hardAlpha" operator="out"/>
<feColorMatrix type="matrix" values="0 0 0 0 0 0 0 0 0 0 0 0 0 0 0 0 0 0 1 0"/>
<feBlend mode="normal" in2="BackgroundImageFix" result="effect1_dropShadow_2619_67"/>
<feBlend mode="normal" in="SourceGraphic" in2="effect1_dropShadow_2619_67" result="shape"/>
</filter>
</defs>
</svg>
